<?xml version="1.0" standalone="no"?><!DOCTYPE svg PUBLIC "-//W3C//DTD SVG 1.1//EN" "http://www.w3.org/Graphics/SVG/1.1/DTD/svg11.dtd"><svg t="1612977642230" class="icon" viewBox="0 0 1060 1024" version="1.1" xmlns="http://www.w3.org/2000/svg" p-id="2420" xmlns:xlink="http://www.w3.org/1999/xlink" width="207.03125" height="200"><defs><style type="text/css"></style></defs><path d="M155.025387 209.506185a157.134398 213.982806 76.8 1 0 416.658291-97.726319 157.134398 213.982806 76.8 1 0-416.658291 97.726319Z" fill="#CC9760" p-id="2421"></path><path d="M153.411461 642.612289a189.269774 213.982806 13.24 1 0 98.017178-416.589963 189.269774 213.982806 13.24 1 0-98.017178 416.589963Z" fill="#CC9760" p-id="2422"></path><path d="M819.637647 642.516129a189.269774 213.982806 13.24 1 0 98.017178-416.589964 189.269774 213.982806 13.24 1 0-98.017178 416.589964Z" fill="#CC9760" p-id="2423"></path><path d="M698.925643 317.209335a213.982806 157.134398 5.05 1 0 27.663528-313.048886 213.982806 157.134398 5.05 1 0-27.663528 313.048886Z" fill="#CC9760" p-id="2424"></path><path d="M999.065732 613.7468c3.711172-4.807655 7.16931-9.783999 10.374412-14.844688 1.686896-2.614689 3.373793-5.145034 4.976345-7.844068s2.952069-5.229379 4.38593-7.928413 3.879862-7.506689 5.735448-11.302206c0.927793-2.024276 1.855586-3.879862 2.699034-5.904137 2.361655-5.313724 4.470275-10.880482 6.494551-16.868964l1.771241-5.229379c2.024276-6.325861 3.964206-12.736068 5.482414-19.399308s2.614689-12.398688 3.542482-18.555861c16.868964-108.383093-42.17241-210.440324-138.747227-233.044735l-5.145034-1.096482a119.01054 119.01054 0 0 0 13.495171-45.293168c7.675379-86.45344-81.56144-164.978466-199.306808-175.352879C641.021975 44.840995 573.546119 66.770648 531.37371 105.400575c-44.027996-48.919995-133.264814-86.200405-215.669703-50.606891C228.744499 92.833197 246.79429 219.350426 143.387542 256.799526c-6.578896 2.361655 3.795517 13.326481 6.578896 19.652342C82.321893 297.116349 25.304795 357.50724 6.411556 438.140887a235.40639 235.40639 0 0 0-3.289448 92.779301c0 1.180827 0 2.27731 0.590414 3.373792 0.590414 3.120758 1.180827 6.157172 1.855586 9.277931 0 1.686896 0.759103 3.373793 1.180827 4.976344s1.265172 4.807655 1.939931 7.169309 1.180827 4.132896 1.855586 6.157172a49.00434 49.00434 0 0 0 1.771241 5.313724c0.843448 2.530345 1.686896 4.976344 2.61469 7.422344 0.421724 1.096483 0.843448 2.10862 1.349517 3.205103a196.860808 196.860808 0 0 0 46.305305 69.162752 102.141576 102.141576 0 0 1 32.810135 73.633027v91.514128a193.233981 193.233981 0 0 0 156.965708 186.317706 1410.582754 1410.582754 0 0 0 271.337283 25.303446 1411.763582 1411.763582 0 0 0 263.493215-24.038274 193.993084 193.993084 0 0 0 158.905639-187.835912v-77.597234a161.689018 161.689018 0 0 1 42.17241-107.455299c2.699034-3.036413 5.229379-6.157172 7.759723-9.362275z" fill="#FF6E83" p-id="2425"></path><path d="M1010.958351 566.429356c3.626827-4.807655 7.084965-9.699654 10.374413-14.760343 1.602552-2.614689 3.289448-5.145034 4.891999-7.844068s2.952069-5.229379 4.385931-7.928413 3.964206-7.506689 5.735448-11.386551l2.783379-5.819792c2.27731-5.398068 4.385931-10.880482 6.410206-16.868964l1.771241-5.229379c2.024276-6.325861 3.964206-12.736068 5.482413-19.399308s2.614689-12.398688 3.542483-18.55586c16.868964-108.383093-42.17241-210.440324-138.747228-233.12908l-5.145034-1.012138a117.576678 117.576678 0 0 0 13.495171-45.293168C933.614152 92.833197 844.377333 14.561205 726.631966 4.186792c-73.970406-6.578896-141.530606 15.350757-183.449982 53.980685-44.027996-48.919995-128.204125-70.933993-215.669702-50.606892C212.465949 34.719617 134.95306 125.052918 155.027127 209.566427a114.455919 114.455919 0 0 0 6.578896 19.652343c-67.475855 20.664481-124.408608 80.971026-143.386192 161.604673a236.165493 236.165493 0 0 0-3.289448 92.779301c0 1.096483 0.421724 2.27731 0.590413 3.373793 0.590414 3.120758 1.180827 6.157172 1.855586 9.27793 0 1.686896 0.759103 3.289448 1.180828 4.976344s1.265172 4.807655 1.939931 7.16931 1.180827 4.132896 1.855586 6.157172 1.096483 3.542482 1.771241 5.313723 1.686896 4.976344 2.614689 7.422344c0.421724 1.012138 0.843448 2.10862 1.349517 3.205104a197.619911 197.619911 0 0 0 46.305306 69.162751 101.972886 101.972886 0 0 1 32.810135 73.633027v91.598474a193.233981 193.233981 0 0 0 156.965708 186.317705 1410.582754 1410.582754 0 0 0 271.337283 25.303446A1411.763582 1411.763582 0 0 0 798.999821 953.150352a194.499153 194.499153 0 0 0 158.989984-187.835912v-78.271992a161.689018 161.689018 0 0 1 42.172409-107.4553c2.699034-3.036413 5.229379-6.157172 7.759724-9.362275z" fill="#FCF0E6" p-id="2426"></path><path d="M228.154085 200.119807c1.180827-41.244617 23.616549-92.779301 70.765303-116.901919 52.462477-26.990342 114.371575-9.699654 149.712054 19.821032 83.83875 70.174889 60.643925 246.286872-10.205723 277.241421s-213.223703-71.693096-210.271634-180.160534zM789.553201 685.355551c-20.580136 56.426684-147.434744 59.041373-255.902181 60.72827s-228.23708 4.132896-250.166733-49.00434c-28.086825-67.475855 98.767783-236.165493 251.51625-237.6837 149.543364-1.602552 279.68742 156.965708 254.552664 225.95977zM88.985134 489.253847c-15.772481-34.750065-17.543722-90.248956 19.230618-124.408608S199.982916 335.914966 233.636498 354.302136c69.078407 37.617789 88.224681 151.820674 43.100203 193.402671S121.289199 560.440874 88.985134 489.253847zM862.34278 351.856137c31.460618-14.844688 80.464957-13.663861 108.045713 18.808894 24.122618 28.255514 21.676619 68.319303 9.783999 94.297508-27.412066 59.716132-122.890401 83.754405-159.580398 48.666961s-18.55586-133.349159 41.750686-161.773363zM634.358734 105.316231c40.232479-30.195445 111.082127-44.787099 160.255156-7.844069 41.160272 30.870204 50.606891 85.188267 45.377513 122.890402C825.737128 323.853657 685.977763 404.909028 621.622666 368.219032S549.92957 168.743535 634.358734 105.316231z" fill="#F7999F" p-id="2427"></path><path d="M817.049612 799.642781m-65.1142 0a65.1142 65.1142 0 1 0 130.2284 0 65.1142 65.1142 0 1 0-130.2284 0Z" fill="#F7999F" p-id="2428"></path><path d="M846.992023 799.642781m-28.339859 0a28.339859 28.339859 0 1 0 56.679718 0 28.339859 28.339859 0 1 0-56.679718 0Z" fill="#FFFFFF" p-id="2429"></path><path d="M899.117121 385.847099m-28.339859 0a28.339859 28.339859 0 1 0 56.679718 0 28.339859 28.339859 0 1 0-56.679718 0Z" fill="#FFFFFF" p-id="2430"></path><path d="M695.002659 126.65547m-28.339859 0a28.339859 28.339859 0 1 0 56.679718 0 28.339859 28.339859 0 1 0-56.679718 0Z" fill="#FFFFFF" p-id="2431"></path><path d="M282.556494 154.995329m-28.33986 0a28.339859 28.339859 0 1 0 56.679719 0 28.339859 28.339859 0 1 0-56.679719 0Z" fill="#FFFFFF" p-id="2432"></path><path d="M127.277682 445.057162m-28.33986 0a28.339859 28.339859 0 1 0 56.679719 0 28.339859 28.339859 0 1 0-56.679719 0Z" fill="#FFFFFF" p-id="2433"></path></svg>